<svg id="Layer" enable-background="new 0 0 64 64" height="512" viewBox="0 0 64 64" width="512" xmlns="http://www.w3.org/2000/svg"><path d="m31.414 15.586-7-7c-.78-.781-2.048-.781-2.828 0l-7 7c-.781.781-.781 2.047 0 2.828.78.781 2.048.781 2.828 0l3.586-3.586v39.172c0 1.104.896 2 2 2s2-.896 2-2v-39.172l3.586 3.586c.39.391.902.586 1.414.586s1.024-.195 1.414-.586c.781-.781.781-2.047 0-2.828z"/><path d="m49.414 45.586c-.781-.781-2.047-.781-2.828 0l-3.586 3.586v-39.172c0-1.104-.896-2-2-2s-2 .896-2 2v39.172l-3.586-3.586c-.781-.781-2.048-.781-2.828 0-.781.781-.781 2.047 0 2.828l7 7c.391.391.902.586 1.414.586s1.023-.195 1.414-.586l7-7c.781-.781.781-2.047 0-2.828z"/></svg>